<?xml version="1.0" encoding="UTF-8" standalone="no"?>
<!DOCTYPE svg PUBLIC "-//W3C//DTD SVG 1.1//EN"
 "http://www.w3.org/Graphics/SVG/1.1/DTD/svg11.dtd">
<!-- Generated by graphviz version 2.28.0 (20110507.0327)
 -->
<!-- Title: G Pages: 1 -->
<svg width="118pt" height="96pt"
 viewBox="0.00 0.00 118.00 96.00" xmlns="http://www.w3.org/2000/svg" xmlns:xlink="http://www.w3.org/1999/xlink">
<g id="graph1" class="graph" transform="scale(1 1) rotate(0) translate(4 92)">
<title>G</title>
<polygon fill="white" stroke="white" points="-4,5 -4,-92 115,-92 115,5 -4,5"/>
<g id="graph2" class="cluster"><title>cluster_global</title>
<polyline fill="none" stroke="gray" points="20,-8 90,-8 "/>
<path fill="none" stroke="gray" d="M90,-8C96,-8 102,-14 102,-20"/>
<polyline fill="none" stroke="gray" points="102,-20 102,-68 "/>
<path fill="none" stroke="gray" d="M102,-68C102,-74 96,-80 90,-80"/>
<polyline fill="none" stroke="gray" points="90,-80 20,-80 "/>
<path fill="none" stroke="gray" d="M20,-80C14,-80 8,-74 8,-68"/>
<polyline fill="none" stroke="gray" points="8,-68 8,-20 "/>
<path fill="none" stroke="gray" d="M8,-20C8,-14 14,-8 20,-8"/>
<text text-anchor="middle" x="55" y="-67.2" font-family="Times New Roman,serif" font-size="11.00" fill="gray">global</text>
</g>
<!-- \\ImageLite -->
<g id="node2" class="node"><title>\\ImageLite</title>
<a xlink:href="imagelite.class.html" xlink:title="ImageLite" target="_parent">
<polygon fill="none" stroke="black" points="93.5,-52 16.5,-52 16.5,-16 93.5,-16 93.5,-52"/>
<text text-anchor="middle" x="55" y="-31.2" font-family="Courier,monospace" font-size="11.00">ImageLite</text>
</a>
</g>
</g>
</svg>
